# xmcd
#
# Track frame offsets:
#	150
#	11218
#	42634
#	60174
#	75519
#
# Disc length: 1284 seconds
#
# Revision: 0
# Processed by: cddbd v1.5.1PL2 Copyright (c) Steve Scherf et al.
# Submitted via: dBpowerAMP V4.0
#
DISCID=34050205
DTITLE=Cornelis Wreesvijk - Från Boken "Ett Bluesliv"
DYEAR=2006
DGENRE=Blues
TTITLE0=Teddybjörnen
TTITLE1=Getinghonung Provencale
TTITLE2=Hönan Agda (Joropo á la Mundebo)
TTITLE3=Sambaliten
TTITLE4=Columbine
EXTD=
EXTT0=
EXTT1=
EXTT2=
EXTT3=
EXTT4=
PLAYORDER=
